<mxfile host="app.diagrams.net" modified="2023-09-26T04:35:59.951Z" agent="Mozilla/5.0 (Macintosh; Intel Mac OS X 10.15; rv:109.0) Gecko/20100101 Firefox/117.0" etag="xt0kkof-tUm3da_KT015" version="21.8.2" type="github">
  <diagram name="PÃ¡gina-1" id="WqBiyqkYGyX9POnRl44Q">
    <mxGraphModel dx="915" dy="580" grid="1" gridSize="10" guides="1" tooltips="1" connect="1" arrows="1" fold="1" page="1" pageScale="1" pageWidth="827" pageHeight="1169" math="0" shadow="0">
      <root>
        <mxCell id="0" />
        <mxCell id="1" parent="0" />
        <mxCell id="iY5ya9O0bGAfjeoqi_-0-1" value="tiene" style="rhombus;whiteSpace=wrap;html=1;" vertex="1" parent="1">
          <mxGeometry x="357.20000000000005" y="132.08000000000015" width="100" height="80" as="geometry" />
        </mxCell>
        <mxCell id="iY5ya9O0bGAfjeoqi_-0-2" style="edgeStyle=none;rounded=0;orthogonalLoop=1;jettySize=auto;html=1;exitX=1;exitY=0.5;exitDx=0;exitDy=0;entryX=0;entryY=0.5;entryDx=0;entryDy=0;endArrow=none;endFill=0;" edge="1" parent="1" source="iY5ya9O0bGAfjeoqi_-0-3" target="iY5ya9O0bGAfjeoqi_-0-1">
          <mxGeometry relative="1" as="geometry" />
        </mxCell>
        <mxCell id="iY5ya9O0bGAfjeoqi_-0-3" value="area_de_ conocimiento" style="rounded=1;whiteSpace=wrap;html=1;" vertex="1" parent="1">
          <mxGeometry x="187.20000000000005" y="142.08000000000015" width="120" height="60" as="geometry" />
        </mxCell>
        <mxCell id="iY5ya9O0bGAfjeoqi_-0-4" style="edgeStyle=none;rounded=0;orthogonalLoop=1;jettySize=auto;html=1;exitX=0;exitY=0.5;exitDx=0;exitDy=0;entryX=1;entryY=0.5;entryDx=0;entryDy=0;endArrow=none;endFill=0;" edge="1" parent="1" source="iY5ya9O0bGAfjeoqi_-0-5" target="iY5ya9O0bGAfjeoqi_-0-1">
          <mxGeometry relative="1" as="geometry" />
        </mxCell>
        <mxCell id="iY5ya9O0bGAfjeoqi_-0-5" value="profesor" style="rounded=1;whiteSpace=wrap;html=1;" vertex="1" parent="1">
          <mxGeometry x="507.1999999999998" y="142.08000000000015" width="120" height="60" as="geometry" />
        </mxCell>
        <mxCell id="iY5ya9O0bGAfjeoqi_-0-6" value="1:N" style="text;html=1;align=center;verticalAlign=middle;resizable=0;points=[];autosize=1;strokeColor=none;fillColor=none;" vertex="1" parent="1">
          <mxGeometry x="387.1999999999998" y="102.08000000000015" width="40" height="30" as="geometry" />
        </mxCell>
        <mxCell id="iY5ya9O0bGAfjeoqi_-0-7" value="1" style="text;html=1;align=center;verticalAlign=middle;resizable=0;points=[];autosize=1;strokeColor=none;fillColor=none;" vertex="1" parent="1">
          <mxGeometry x="307.20000000000005" y="142.08000000000015" width="30" height="30" as="geometry" />
        </mxCell>
        <mxCell id="iY5ya9O0bGAfjeoqi_-0-8" value="1" style="text;html=1;align=center;verticalAlign=middle;resizable=0;points=[];autosize=1;strokeColor=none;fillColor=none;" vertex="1" parent="1">
          <mxGeometry x="307.20000000000005" y="172.08000000000015" width="30" height="30" as="geometry" />
        </mxCell>
        <mxCell id="iY5ya9O0bGAfjeoqi_-0-9" value="N" style="text;html=1;align=center;verticalAlign=middle;resizable=0;points=[];autosize=1;strokeColor=none;fillColor=none;" vertex="1" parent="1">
          <mxGeometry x="477.1999999999998" y="142.08000000000015" width="30" height="30" as="geometry" />
        </mxCell>
        <mxCell id="iY5ya9O0bGAfjeoqi_-0-10" value="1" style="text;html=1;align=center;verticalAlign=middle;resizable=0;points=[];autosize=1;strokeColor=none;fillColor=none;" vertex="1" parent="1">
          <mxGeometry x="477.1999999999998" y="172.08000000000015" width="30" height="30" as="geometry" />
        </mxCell>
        <mxCell id="iY5ya9O0bGAfjeoqi_-0-11" style="edgeStyle=orthogonalEdgeStyle;rounded=0;orthogonalLoop=1;jettySize=auto;html=1;entryX=0.1;entryY=-0.032;entryDx=0;entryDy=0;entryPerimeter=0;endArrow=none;endFill=0;" edge="1" parent="1" source="iY5ya9O0bGAfjeoqi_-0-12">
          <mxGeometry relative="1" as="geometry">
            <mxPoint x="200.45000000000005" y="142" as="targetPoint" />
          </mxGeometry>
        </mxCell>
        <mxCell id="iY5ya9O0bGAfjeoqi_-0-12" value="" style="ellipse;whiteSpace=wrap;html=1;aspect=fixed;fillColor=#000;" vertex="1" parent="1">
          <mxGeometry x="195.95000000000005" y="111.92000000000007" width="10" height="10" as="geometry" />
        </mxCell>
        <mxCell id="iY5ya9O0bGAfjeoqi_-0-13" value="codArea" style="text;html=1;align=center;verticalAlign=middle;resizable=0;points=[];autosize=1;strokeColor=none;fillColor=none;" vertex="1" parent="1">
          <mxGeometry x="165.95000000000005" y="82.08" width="70" height="30" as="geometry" />
        </mxCell>
        <mxCell id="iY5ya9O0bGAfjeoqi_-0-14" style="edgeStyle=orthogonalEdgeStyle;rounded=0;orthogonalLoop=1;jettySize=auto;html=1;exitX=0.5;exitY=1;exitDx=0;exitDy=0;entryX=0.5;entryY=0;entryDx=0;entryDy=0;endArrow=none;endFill=0;" edge="1" parent="1" source="iY5ya9O0bGAfjeoqi_-0-15">
          <mxGeometry relative="1" as="geometry">
            <mxPoint x="242.20000000000005" y="142" as="targetPoint" />
          </mxGeometry>
        </mxCell>
        <mxCell id="iY5ya9O0bGAfjeoqi_-0-15" value="" style="ellipse;whiteSpace=wrap;html=1;aspect=fixed;" vertex="1" parent="1">
          <mxGeometry x="237.20000000000005" y="112" width="10" height="10" as="geometry" />
        </mxCell>
        <mxCell id="iY5ya9O0bGAfjeoqi_-0-16" value="nombre_area" style="text;html=1;align=center;verticalAlign=middle;resizable=0;points=[];autosize=1;strokeColor=none;fillColor=none;" vertex="1" parent="1">
          <mxGeometry x="227.22000000000006" y="82.08" width="90" height="30" as="geometry" />
        </mxCell>
        <mxCell id="iY5ya9O0bGAfjeoqi_-0-20" style="edgeStyle=orthogonalEdgeStyle;rounded=0;orthogonalLoop=1;jettySize=auto;html=1;entryX=0.1;entryY=-0.032;entryDx=0;entryDy=0;entryPerimeter=0;endArrow=none;endFill=0;" edge="1" parent="1" source="iY5ya9O0bGAfjeoqi_-0-21">
          <mxGeometry relative="1" as="geometry">
            <mxPoint x="525.4499999999998" y="142.08000000000015" as="targetPoint" />
          </mxGeometry>
        </mxCell>
        <mxCell id="iY5ya9O0bGAfjeoqi_-0-21" value="" style="ellipse;whiteSpace=wrap;html=1;aspect=fixed;fillColor=#000;" vertex="1" parent="1">
          <mxGeometry x="520.9499999999998" y="112" width="10" height="10" as="geometry" />
        </mxCell>
        <mxCell id="iY5ya9O0bGAfjeoqi_-0-22" value="codProf" style="text;html=1;align=center;verticalAlign=middle;resizable=0;points=[];autosize=1;strokeColor=none;fillColor=none;" vertex="1" parent="1">
          <mxGeometry x="495.9499999999998" y="82.08000000000015" width="60" height="30" as="geometry" />
        </mxCell>
        <mxCell id="iY5ya9O0bGAfjeoqi_-0-47" style="edgeStyle=orthogonalEdgeStyle;rounded=0;orthogonalLoop=1;jettySize=auto;html=1;entryX=0.5;entryY=0;entryDx=0;entryDy=0;endArrow=none;endFill=0;" edge="1" parent="1" source="iY5ya9O0bGAfjeoqi_-0-48" target="iY5ya9O0bGAfjeoqi_-0-50">
          <mxGeometry relative="1" as="geometry" />
        </mxCell>
        <mxCell id="iY5ya9O0bGAfjeoqi_-0-48" value="integracion" style="rhombus;whiteSpace=wrap;html=1;" vertex="1" parent="1">
          <mxGeometry x="197.22000000000023" y="242.08000000000004" width="100" height="80" as="geometry" />
        </mxCell>
        <mxCell id="iY5ya9O0bGAfjeoqi_-0-49" style="edgeStyle=orthogonalEdgeStyle;rounded=0;orthogonalLoop=1;jettySize=auto;html=1;entryX=0.5;entryY=0;entryDx=0;entryDy=0;endArrow=none;endFill=0;" edge="1" parent="1" target="iY5ya9O0bGAfjeoqi_-0-48">
          <mxGeometry relative="1" as="geometry">
            <mxPoint x="247.19000000000003" y="202.39999999999998" as="sourcePoint" />
          </mxGeometry>
        </mxCell>
        <mxCell id="iY5ya9O0bGAfjeoqi_-0-175" style="edgeStyle=orthogonalEdgeStyle;rounded=0;orthogonalLoop=1;jettySize=auto;html=1;entryX=0;entryY=0.5;entryDx=0;entryDy=0;endArrow=none;endFill=0;" edge="1" parent="1" source="iY5ya9O0bGAfjeoqi_-0-50" target="iY5ya9O0bGAfjeoqi_-0-84">
          <mxGeometry relative="1" as="geometry" />
        </mxCell>
        <mxCell id="iY5ya9O0bGAfjeoqi_-0-50" value="departamento" style="rounded=1;whiteSpace=wrap;html=1;" vertex="1" parent="1">
          <mxGeometry x="187.22" y="362.08000000000027" width="120" height="60" as="geometry" />
        </mxCell>
        <mxCell id="iY5ya9O0bGAfjeoqi_-0-51" value="&lt;div&gt;1&lt;/div&gt;&lt;div&gt;:&lt;/div&gt;&lt;div&gt;N&lt;/div&gt;" style="text;html=1;align=center;verticalAlign=middle;resizable=0;points=[];autosize=1;strokeColor=none;fillColor=none;" vertex="1" parent="1">
          <mxGeometry x="297.2200000000002" y="252.08000000000004" width="30" height="60" as="geometry" />
        </mxCell>
        <mxCell id="iY5ya9O0bGAfjeoqi_-0-52" value="1" style="text;html=1;align=center;verticalAlign=middle;resizable=0;points=[];autosize=1;strokeColor=none;fillColor=none;" vertex="1" parent="1">
          <mxGeometry x="247.22000000000023" y="202.08000000000004" width="30" height="30" as="geometry" />
        </mxCell>
        <mxCell id="iY5ya9O0bGAfjeoqi_-0-53" value="1" style="text;html=1;align=center;verticalAlign=middle;resizable=0;points=[];autosize=1;strokeColor=none;fillColor=none;" vertex="1" parent="1">
          <mxGeometry x="217.22000000000023" y="202.08000000000004" width="30" height="30" as="geometry" />
        </mxCell>
        <mxCell id="iY5ya9O0bGAfjeoqi_-0-54" value="N" style="text;html=1;align=center;verticalAlign=middle;resizable=0;points=[];autosize=1;strokeColor=none;fillColor=none;" vertex="1" parent="1">
          <mxGeometry x="247.22000000000023" y="332.08000000000027" width="30" height="30" as="geometry" />
        </mxCell>
        <mxCell id="iY5ya9O0bGAfjeoqi_-0-55" value="1" style="text;html=1;align=center;verticalAlign=middle;resizable=0;points=[];autosize=1;strokeColor=none;fillColor=none;" vertex="1" parent="1">
          <mxGeometry x="217.22000000000023" y="332.08000000000027" width="30" height="30" as="geometry" />
        </mxCell>
        <mxCell id="iY5ya9O0bGAfjeoqi_-0-74" style="edgeStyle=orthogonalEdgeStyle;rounded=0;orthogonalLoop=1;jettySize=auto;html=1;entryX=0.083;entryY=1;entryDx=0;entryDy=0;entryPerimeter=0;endArrow=none;endFill=0;" edge="1" parent="1" source="iY5ya9O0bGAfjeoqi_-0-75">
          <mxGeometry relative="1" as="geometry">
            <mxPoint x="206.24999999999997" y="422.36" as="targetPoint" />
          </mxGeometry>
        </mxCell>
        <mxCell id="iY5ya9O0bGAfjeoqi_-0-75" value="" style="ellipse;whiteSpace=wrap;html=1;aspect=fixed;fillColor=#000;" vertex="1" parent="1">
          <mxGeometry x="200.99999999999997" y="452.36" width="10" height="10" as="geometry" />
        </mxCell>
        <mxCell id="iY5ya9O0bGAfjeoqi_-0-76" value="codDep" style="text;html=1;align=center;verticalAlign=middle;resizable=0;points=[];autosize=1;strokeColor=none;fillColor=none;" vertex="1" parent="1">
          <mxGeometry x="172.21999999999997" y="456.91999999999996" width="60" height="30" as="geometry" />
        </mxCell>
        <mxCell id="iY5ya9O0bGAfjeoqi_-0-80" style="edgeStyle=orthogonalEdgeStyle;rounded=0;orthogonalLoop=1;jettySize=auto;html=1;entryX=0.5;entryY=1;entryDx=0;entryDy=0;endArrow=none;endFill=0;" edge="1" parent="1" source="iY5ya9O0bGAfjeoqi_-0-81">
          <mxGeometry relative="1" as="geometry">
            <mxPoint x="247.48" y="421.9600000000004" as="targetPoint" />
          </mxGeometry>
        </mxCell>
        <mxCell id="iY5ya9O0bGAfjeoqi_-0-81" value="" style="ellipse;whiteSpace=wrap;html=1;aspect=fixed;" vertex="1" parent="1">
          <mxGeometry x="242.22000000000023" y="452.0400000000003" width="10" height="10" as="geometry" />
        </mxCell>
        <mxCell id="iY5ya9O0bGAfjeoqi_-0-82" value="nombre_dep" style="text;html=1;align=center;verticalAlign=middle;resizable=0;points=[];autosize=1;strokeColor=none;fillColor=none;" vertex="1" parent="1">
          <mxGeometry x="235.95000000000022" y="452.36000000000024" width="90" height="30" as="geometry" />
        </mxCell>
        <mxCell id="iY5ya9O0bGAfjeoqi_-0-83" style="edgeStyle=orthogonalEdgeStyle;rounded=0;orthogonalLoop=1;jettySize=auto;html=1;entryX=0.5;entryY=0;entryDx=0;entryDy=0;endArrow=none;endFill=0;" edge="1" source="iY5ya9O0bGAfjeoqi_-0-84" parent="1" target="iY5ya9O0bGAfjeoqi_-0-139">
          <mxGeometry relative="1" as="geometry">
            <mxPoint x="566.98" y="476.84000000000003" as="targetPoint" />
          </mxGeometry>
        </mxCell>
        <mxCell id="iY5ya9O0bGAfjeoqi_-0-84" value="establece" style="rhombus;whiteSpace=wrap;html=1;" vertex="1" parent="1">
          <mxGeometry x="517.2000000000003" y="352.0800000000001" width="100" height="80" as="geometry" />
        </mxCell>
        <mxCell id="iY5ya9O0bGAfjeoqi_-0-85" style="edgeStyle=orthogonalEdgeStyle;rounded=0;orthogonalLoop=1;jettySize=auto;html=1;entryX=0.5;entryY=0;entryDx=0;entryDy=0;endArrow=none;endFill=0;" edge="1" target="iY5ya9O0bGAfjeoqi_-0-84" parent="1">
          <mxGeometry relative="1" as="geometry">
            <mxPoint x="567.1700000000001" y="202.39999999999998" as="sourcePoint" />
          </mxGeometry>
        </mxCell>
        <mxCell id="iY5ya9O0bGAfjeoqi_-0-86" value="&lt;div&gt;N&lt;br&gt;&lt;/div&gt;&lt;div&gt;:&lt;/div&gt;&lt;div&gt;M&lt;br&gt;&lt;/div&gt;" style="text;html=1;align=center;verticalAlign=middle;resizable=0;points=[];autosize=1;strokeColor=none;fillColor=none;" vertex="1" parent="1">
          <mxGeometry x="617.2000000000003" y="366.9200000000001" width="30" height="60" as="geometry" />
        </mxCell>
        <mxCell id="iY5ya9O0bGAfjeoqi_-0-87" value="1" style="text;html=1;align=center;verticalAlign=middle;resizable=0;points=[];autosize=1;strokeColor=none;fillColor=none;" vertex="1" parent="1">
          <mxGeometry x="567.2000000000003" y="202.08000000000004" width="30" height="30" as="geometry" />
        </mxCell>
        <mxCell id="iY5ya9O0bGAfjeoqi_-0-88" value="1" style="text;html=1;align=center;verticalAlign=middle;resizable=0;points=[];autosize=1;strokeColor=none;fillColor=none;" vertex="1" parent="1">
          <mxGeometry x="537.2000000000003" y="202.08000000000004" width="30" height="30" as="geometry" />
        </mxCell>
        <mxCell id="iY5ya9O0bGAfjeoqi_-0-89" value="N" style="text;html=1;align=center;verticalAlign=middle;resizable=0;points=[];autosize=1;strokeColor=none;fillColor=none;" vertex="1" parent="1">
          <mxGeometry x="567.2000000000003" y="451.9200000000003" width="30" height="30" as="geometry" />
        </mxCell>
        <mxCell id="iY5ya9O0bGAfjeoqi_-0-90" value="1" style="text;html=1;align=center;verticalAlign=middle;resizable=0;points=[];autosize=1;strokeColor=none;fillColor=none;rotation=0;" vertex="1" parent="1">
          <mxGeometry x="537.2200000000003" y="452.3600000000003" width="30" height="30" as="geometry" />
        </mxCell>
        <mxCell id="iY5ya9O0bGAfjeoqi_-0-139" value="asignatura" style="rounded=1;whiteSpace=wrap;html=1;" vertex="1" parent="1">
          <mxGeometry x="507.2" y="481.92000000000013" width="120" height="60" as="geometry" />
        </mxCell>
        <mxCell id="iY5ya9O0bGAfjeoqi_-0-142" value="" style="ellipse;whiteSpace=wrap;html=1;aspect=fixed;" vertex="1" parent="1">
          <mxGeometry x="477.1700000000001" y="486.92000000000013" width="10" height="10" as="geometry" />
        </mxCell>
        <mxCell id="iY5ya9O0bGAfjeoqi_-0-149" style="edgeStyle=orthogonalEdgeStyle;rounded=0;orthogonalLoop=1;jettySize=auto;html=1;exitX=0;exitY=0.5;exitDx=0;exitDy=0;entryX=1;entryY=0.085;entryDx=0;entryDy=0;entryPerimeter=0;endArrow=none;endFill=0;" edge="1" parent="1">
          <mxGeometry relative="1" as="geometry">
            <mxPoint x="507.17" y="491.92000000000013" as="sourcePoint" />
            <mxPoint x="487.17" y="491.92000000000013" as="targetPoint" />
          </mxGeometry>
        </mxCell>
        <mxCell id="iY5ya9O0bGAfjeoqi_-0-150" style="edgeStyle=orthogonalEdgeStyle;rounded=0;orthogonalLoop=1;jettySize=auto;html=1;entryX=0.5;entryY=0;entryDx=0;entryDy=0;endArrow=none;endFill=0;" edge="1" source="iY5ya9O0bGAfjeoqi_-0-151" target="iY5ya9O0bGAfjeoqi_-0-153" parent="1">
          <mxGeometry relative="1" as="geometry" />
        </mxCell>
        <mxCell id="iY5ya9O0bGAfjeoqi_-0-151" value="acccion" style="rhombus;whiteSpace=wrap;html=1;" vertex="1" parent="1">
          <mxGeometry x="517.2200000000001" y="581.9200000000001" width="100" height="80" as="geometry" />
        </mxCell>
        <mxCell id="iY5ya9O0bGAfjeoqi_-0-152" style="edgeStyle=orthogonalEdgeStyle;rounded=0;orthogonalLoop=1;jettySize=auto;html=1;entryX=0.5;entryY=0;entryDx=0;entryDy=0;endArrow=none;endFill=0;" edge="1" target="iY5ya9O0bGAfjeoqi_-0-151" parent="1">
          <mxGeometry relative="1" as="geometry">
            <mxPoint x="567.1899999999999" y="542.24" as="sourcePoint" />
          </mxGeometry>
        </mxCell>
        <mxCell id="iY5ya9O0bGAfjeoqi_-0-153" value="titulacion" style="rounded=1;whiteSpace=wrap;html=1;" vertex="1" parent="1">
          <mxGeometry x="507.21999999999997" y="701.9200000000003" width="120" height="60" as="geometry" />
        </mxCell>
        <mxCell id="iY5ya9O0bGAfjeoqi_-0-154" value="&lt;div&gt;1&lt;/div&gt;&lt;div&gt;:&lt;/div&gt;&lt;div&gt;N&lt;/div&gt;" style="text;html=1;align=center;verticalAlign=middle;resizable=0;points=[];autosize=1;strokeColor=none;fillColor=none;" vertex="1" parent="1">
          <mxGeometry x="617.2200000000001" y="591.9200000000001" width="30" height="60" as="geometry" />
        </mxCell>
        <mxCell id="iY5ya9O0bGAfjeoqi_-0-155" value="1" style="text;html=1;align=center;verticalAlign=middle;resizable=0;points=[];autosize=1;strokeColor=none;fillColor=none;" vertex="1" parent="1">
          <mxGeometry x="567.2200000000001" y="541.9200000000001" width="30" height="30" as="geometry" />
        </mxCell>
        <mxCell id="iY5ya9O0bGAfjeoqi_-0-156" value="1" style="text;html=1;align=center;verticalAlign=middle;resizable=0;points=[];autosize=1;strokeColor=none;fillColor=none;" vertex="1" parent="1">
          <mxGeometry x="537.2200000000001" y="541.9200000000001" width="30" height="30" as="geometry" />
        </mxCell>
        <mxCell id="iY5ya9O0bGAfjeoqi_-0-157" value="N" style="text;html=1;align=center;verticalAlign=middle;resizable=0;points=[];autosize=1;strokeColor=none;fillColor=none;" vertex="1" parent="1">
          <mxGeometry x="567.2200000000001" y="671.9200000000003" width="30" height="30" as="geometry" />
        </mxCell>
        <mxCell id="iY5ya9O0bGAfjeoqi_-0-158" value="1" style="text;html=1;align=center;verticalAlign=middle;resizable=0;points=[];autosize=1;strokeColor=none;fillColor=none;" vertex="1" parent="1">
          <mxGeometry x="537.2200000000001" y="671.9200000000003" width="30" height="30" as="geometry" />
        </mxCell>
        <mxCell id="iY5ya9O0bGAfjeoqi_-0-164" value="nombre_titulacion" style="text;html=1;align=center;verticalAlign=middle;resizable=0;points=[];autosize=1;strokeColor=none;fillColor=none;" vertex="1" parent="1">
          <mxGeometry x="562.2" y="802.2000000000005" width="120" height="30" as="geometry" />
        </mxCell>
        <mxCell id="iY5ya9O0bGAfjeoqi_-0-165" value="codTtitulaciÃ³n" style="text;html=1;align=center;verticalAlign=middle;resizable=0;points=[];autosize=1;strokeColor=none;fillColor=none;" vertex="1" parent="1">
          <mxGeometry x="472.2" y="802.2000000000005" width="100" height="30" as="geometry" />
        </mxCell>
        <mxCell id="iY5ya9O0bGAfjeoqi_-0-168" style="edgeStyle=orthogonalEdgeStyle;rounded=0;orthogonalLoop=1;jettySize=auto;html=1;entryX=0.083;entryY=1;entryDx=0;entryDy=0;entryPerimeter=0;endArrow=none;endFill=0;" edge="1" source="iY5ya9O0bGAfjeoqi_-0-169" parent="1">
          <mxGeometry relative="1" as="geometry">
            <mxPoint x="526.2499999999999" y="762.2" as="targetPoint" />
          </mxGeometry>
        </mxCell>
        <mxCell id="iY5ya9O0bGAfjeoqi_-0-169" value="" style="ellipse;whiteSpace=wrap;html=1;aspect=fixed;fillColor=#000;" vertex="1" parent="1">
          <mxGeometry x="520.9999999999999" y="792.2" width="10" height="10" as="geometry" />
        </mxCell>
        <mxCell id="iY5ya9O0bGAfjeoqi_-0-170" style="edgeStyle=orthogonalEdgeStyle;rounded=0;orthogonalLoop=1;jettySize=auto;html=1;entryX=0.5;entryY=1;entryDx=0;entryDy=0;endArrow=none;endFill=0;" edge="1" source="iY5ya9O0bGAfjeoqi_-0-171" parent="1">
          <mxGeometry relative="1" as="geometry">
            <mxPoint x="607.4799999999999" y="761.9600000000003" as="targetPoint" />
          </mxGeometry>
        </mxCell>
        <mxCell id="iY5ya9O0bGAfjeoqi_-0-171" value="" style="ellipse;whiteSpace=wrap;html=1;aspect=fixed;" vertex="1" parent="1">
          <mxGeometry x="602.2200000000001" y="792.0400000000002" width="10" height="10" as="geometry" />
        </mxCell>
        <mxCell id="iY5ya9O0bGAfjeoqi_-0-174" value="hora_practica" style="text;html=1;align=center;verticalAlign=middle;resizable=0;points=[];autosize=1;strokeColor=none;fillColor=none;" vertex="1" parent="1">
          <mxGeometry x="377.20000000000005" y="476.92000000000013" width="100" height="30" as="geometry" />
        </mxCell>
        <mxCell id="iY5ya9O0bGAfjeoqi_-0-213" style="edgeStyle=orthogonalEdgeStyle;rounded=0;orthogonalLoop=1;jettySize=auto;html=1;exitX=0;exitY=0.5;exitDx=0;exitDy=0;entryX=1;entryY=0.085;entryDx=0;entryDy=0;entryPerimeter=0;endArrow=none;endFill=0;" edge="1" parent="1" source="iY5ya9O0bGAfjeoqi_-0-214">
          <mxGeometry relative="1" as="geometry">
            <mxPoint x="627.2499999999999" y="491.92" as="targetPoint" />
          </mxGeometry>
        </mxCell>
        <mxCell id="iY5ya9O0bGAfjeoqi_-0-214" value="" style="ellipse;whiteSpace=wrap;html=1;aspect=fixed;fillColor=#000000;" vertex="1" parent="1">
          <mxGeometry x="647.2499999999999" y="486.92" width="10" height="10" as="geometry" />
        </mxCell>
        <mxCell id="iY5ya9O0bGAfjeoqi_-0-215" value="codAsign" style="text;html=1;align=center;verticalAlign=middle;resizable=0;points=[];autosize=1;strokeColor=none;fillColor=none;" vertex="1" parent="1">
          <mxGeometry x="657.2499999999999" y="476.92" width="70" height="30" as="geometry" />
        </mxCell>
        <mxCell id="iY5ya9O0bGAfjeoqi_-0-216" style="edgeStyle=orthogonalEdgeStyle;rounded=0;orthogonalLoop=1;jettySize=auto;html=1;entryX=1.003;entryY=0.421;entryDx=0;entryDy=0;entryPerimeter=0;endArrow=none;endFill=0;" edge="1" parent="1" source="iY5ya9O0bGAfjeoqi_-0-217">
          <mxGeometry relative="1" as="geometry">
            <mxPoint x="627.2499999999999" y="511.92" as="targetPoint" />
          </mxGeometry>
        </mxCell>
        <mxCell id="iY5ya9O0bGAfjeoqi_-0-217" value="" style="ellipse;whiteSpace=wrap;html=1;aspect=fixed;" vertex="1" parent="1">
          <mxGeometry x="647.2499999999999" y="506.92" width="10" height="10" as="geometry" />
        </mxCell>
        <mxCell id="iY5ya9O0bGAfjeoqi_-0-218" style="edgeStyle=orthogonalEdgeStyle;rounded=0;orthogonalLoop=1;jettySize=auto;html=1;entryX=1;entryY=0.75;entryDx=0;entryDy=0;endArrow=none;endFill=0;" edge="1" parent="1" source="iY5ya9O0bGAfjeoqi_-0-219">
          <mxGeometry relative="1" as="geometry">
            <mxPoint x="627.2499999999999" y="531.9200000000001" as="targetPoint" />
          </mxGeometry>
        </mxCell>
        <mxCell id="iY5ya9O0bGAfjeoqi_-0-219" value="" style="ellipse;whiteSpace=wrap;html=1;aspect=fixed;" vertex="1" parent="1">
          <mxGeometry x="647.2499999999999" y="526.9200000000001" width="10" height="10" as="geometry" />
        </mxCell>
        <mxCell id="iY5ya9O0bGAfjeoqi_-0-220" value="Nombre_asig" style="text;html=1;align=center;verticalAlign=middle;resizable=0;points=[];autosize=1;strokeColor=none;fillColor=none;" vertex="1" parent="1">
          <mxGeometry x="657.1999999999999" y="496.92" width="90" height="30" as="geometry" />
        </mxCell>
        <mxCell id="iY5ya9O0bGAfjeoqi_-0-221" value="hora_teoria" style="text;html=1;align=center;verticalAlign=middle;resizable=0;points=[];autosize=1;strokeColor=none;fillColor=none;" vertex="1" parent="1">
          <mxGeometry x="652.2499999999999" y="516.9200000000001" width="80" height="30" as="geometry" />
        </mxCell>
        <mxCell id="iY5ya9O0bGAfjeoqi_-0-222" style="rounded=0;orthogonalLoop=1;jettySize=auto;html=1;exitX=0;exitY=1;exitDx=0;exitDy=0;entryX=1;entryY=0;entryDx=0;entryDy=0;endArrow=none;endFill=0;" edge="1" parent="1" source="iY5ya9O0bGAfjeoqi_-0-223">
          <mxGeometry relative="1" as="geometry">
            <mxPoint x="592.2" y="372.36" as="targetPoint" />
          </mxGeometry>
        </mxCell>
        <mxCell id="iY5ya9O0bGAfjeoqi_-0-223" value="" style="ellipse;whiteSpace=wrap;html=1;aspect=fixed;" vertex="1" parent="1">
          <mxGeometry x="597.2" y="352.36" width="10" height="10" as="geometry" />
        </mxCell>
        <mxCell id="iY5ya9O0bGAfjeoqi_-0-226" value="fecha" style="text;html=1;align=center;verticalAlign=middle;resizable=0;points=[];autosize=1;strokeColor=none;fillColor=none;" vertex="1" parent="1">
          <mxGeometry x="597.2" y="332" width="50" height="30" as="geometry" />
        </mxCell>
        <mxCell id="iY5ya9O0bGAfjeoqi_-0-228" value="" style="ellipse;whiteSpace=wrap;html=1;aspect=fixed;" vertex="1" parent="1">
          <mxGeometry x="527.2" y="352" width="10" height="10" as="geometry" />
        </mxCell>
        <mxCell id="iY5ya9O0bGAfjeoqi_-0-229" value="gestion" style="text;html=1;align=center;verticalAlign=middle;resizable=0;points=[];autosize=1;strokeColor=none;fillColor=none;" vertex="1" parent="1">
          <mxGeometry x="477.20000000000005" y="332" width="60" height="30" as="geometry" />
        </mxCell>
        <mxCell id="iY5ya9O0bGAfjeoqi_-0-230" style="rounded=0;orthogonalLoop=1;jettySize=auto;html=1;entryX=1;entryY=1;entryDx=0;entryDy=0;endArrow=none;endFill=0;" edge="1" parent="1">
          <mxGeometry relative="1" as="geometry">
            <mxPoint x="541.97" y="372.15999999999997" as="sourcePoint" />
            <mxPoint x="534.97" y="361.15999999999997" as="targetPoint" />
          </mxGeometry>
        </mxCell>
        <mxCell id="iY5ya9O0bGAfjeoqi_-0-231" style="edgeStyle=orthogonalEdgeStyle;rounded=0;orthogonalLoop=1;jettySize=auto;html=1;exitX=0.5;exitY=1;exitDx=0;exitDy=0;entryX=0.5;entryY=0;entryDx=0;entryDy=0;endArrow=none;endFill=0;" edge="1" source="iY5ya9O0bGAfjeoqi_-0-232" parent="1">
          <mxGeometry relative="1" as="geometry">
            <mxPoint x="565.9300000000001" y="142" as="targetPoint" />
          </mxGeometry>
        </mxCell>
        <mxCell id="iY5ya9O0bGAfjeoqi_-0-232" value="" style="ellipse;whiteSpace=wrap;html=1;aspect=fixed;" vertex="1" parent="1">
          <mxGeometry x="560.9300000000001" y="112" width="10" height="10" as="geometry" />
        </mxCell>
        <mxCell id="iY5ya9O0bGAfjeoqi_-0-233" value="nombre_prof" style="text;html=1;align=center;verticalAlign=middle;resizable=0;points=[];autosize=1;strokeColor=none;fillColor=none;" vertex="1" parent="1">
          <mxGeometry x="550" y="82.08" width="90" height="30" as="geometry" />
        </mxCell>
      </root>
    </mxGraphModel>
  </diagram>
</mxfile>
